<svg xmlns="http://www.w3.org/2000/svg" width="40" height="36" viewBox="0 0 40 36">
  <path id="behance_2_" data-name="behance (2)" d="M16.346,39.494c.305.1.468.167.634.2a4.108,4.108,0,0,1,2.911,3.043,16.7,16.7,0,0,1,.173,10.212A7.326,7.326,0,0,1,15,58.319a7.656,7.656,0,0,1-2.226.326c-4.005.031-8.011.015-12.016.013-.74,0-.755-.023-.755-1.091Q0,41.081,0,24.594c0-1.07.018-1.1.754-1.1,4.266,0,8.534-.056,12.8.03,2.076.042,3.912,1.122,5.137,3.627a12.792,12.792,0,0,1,.791,8.65C19.072,37.585,18.212,38.527,16.346,39.494ZM9.516,52.471c1.078,0,2.157.023,3.234-.005,1.427-.037,2.462-1.2,2.663-3.176a14.114,14.114,0,0,0-.052-3.226c-.262-1.967-1.3-3.118-2.711-3.138-2.138-.031-4.277,0-6.416-.016-.434,0-.632.2-.628.855q.022,3.93,0,7.86c0,.653.185.866.624.856C7.324,52.456,8.42,52.473,9.516,52.471ZM9.421,37.615c1.027,0,2.055.008,3.082,0,1.112-.012,1.828-.792,2.012-2.348a15.873,15.873,0,0,0,.085-2.876c-.121-1.816-.852-2.784-2.077-2.806-2.106-.036-4.213-.008-6.32-.022-.412,0-.6.208-.6.826q.021,3.192,0,6.385c-.005.661.2.86.63.85C7.3,37.6,8.36,37.614,9.421,37.615Zm24.072,10.05c-1.915,0-3.83,0-5.746,0-.685,0-.765.171-.678,1.157.349,3.96,2.647,5.4,5,5.084a5.22,5.22,0,0,0,1.525-.466A3.285,3.285,0,0,0,35.4,50.805c.089-.54.314-.713.675-.709,1.045.011,2.089.016,3.134,0,.477-.008.578.291.537.927-.254,3.919-1.806,6.338-4.354,7.524a9.067,9.067,0,0,1-8.3-.145c-2.364-1.2-3.932-3.615-4.712-6.979A20.782,20.782,0,0,1,23.82,37.289a7.968,7.968,0,0,1,5.922-4.72,8.217,8.217,0,0,1,4,.223c2.968.915,4.824,3.563,5.7,7.626a26.489,26.489,0,0,1,.548,6.233c-.021.883-.112,1.01-.752,1.012Q36.366,47.668,33.493,47.664ZM31.074,43.09h3.6c.307,0,.579-.082.534-.647-.148-1.856-.808-4.011-2.379-4.618-2.593-1-4.836.434-5.688,4.32-.167.761-.077.936.492.942C28.779,43.1,29.926,43.092,31.074,43.09Zm0-13.392c-1.444,0-2.887,0-4.331,0-.7,0-.725-.047-.728-1.061q0-1.038,0-2.077c.005-.916.045-.978.679-.979q3.078-.007,6.157,0c.852,0,1.7,0,2.557,0,.7,0,.721.036.724,1.06q0,1.038,0,2.077c0,.923-.039.979-.675.981C34,29.7,32.535,29.7,31.074,29.7Z" transform="translate(0 -23.479)" fill-rule="evenodd"/>
</svg>
