<svg xmlns="http://www.w3.org/2000/svg" width="45" height="45" viewBox="0 0 44.866 45.591">
  <path id="instagram" d="M36.412,9.887h0A2.736,2.736,0,1,0,39.1,12.623,2.714,2.714,0,0,0,36.412,9.887ZM46.732,15.4A17.549,17.549,0,0,0,45.7,9.864,11.279,11.279,0,0,0,43.1,5.83a10.528,10.528,0,0,0-3.971-2.621,16.148,16.148,0,0,0-5.451-1.071C31.3,2,30.535,2,24.433,2s-6.865,0-9.242.137A16.148,16.148,0,0,0,9.739,3.208,10.708,10.708,0,0,0,5.769,5.83a10.733,10.733,0,0,0-2.58,4.035A16.877,16.877,0,0,0,2.135,15.4C2,17.82,2,18.6,2,24.8s0,6.975.135,9.392a16.877,16.877,0,0,0,1.054,5.539,10.733,10.733,0,0,0,2.58,4.035,10.708,10.708,0,0,0,3.971,2.621,16.148,16.148,0,0,0,5.451,1.071c2.378.137,3.141.137,9.242.137s6.865,0,9.242-.137a16.148,16.148,0,0,0,5.451-1.071A10.528,10.528,0,0,0,43.1,43.761a11.073,11.073,0,0,0,2.6-4.035,17.549,17.549,0,0,0,1.032-5.539c0-2.416.135-3.191.135-9.392S46.866,17.82,46.732,15.4Zm-4.038,18.51a12.972,12.972,0,0,1-.763,4.24,6.987,6.987,0,0,1-1.682,2.621,7.146,7.146,0,0,1-2.58,1.71,12.407,12.407,0,0,1-4.173.775c-2.243.114-3.073.137-8.973.137s-6.73,0-8.973-.137a12.667,12.667,0,0,1-4.352-.684,7.332,7.332,0,0,1-2.468-1.71,6.852,6.852,0,0,1-1.66-2.621,12.8,12.8,0,0,1-.9-4.331c0-2.28-.135-3.123-.135-9.118s0-6.839.135-9.118a12.81,12.81,0,0,1,.785-4.331A6.837,6.837,0,0,1,8.73,8.839,7.05,7.05,0,0,1,11.2,7.015,12.672,12.672,0,0,1,15.46,6.24c2.243,0,3.073-.137,8.973-.137s6.73,0,8.973.137a12.407,12.407,0,0,1,4.173.775,6.859,6.859,0,0,1,2.67,1.824,6.981,6.981,0,0,1,1.682,2.508,12.973,12.973,0,0,1,.763,4.331c.112,2.28.135,3.123.135,9.118S42.806,31.634,42.694,33.914ZM24.433,13.1A11.7,11.7,0,1,0,35.964,24.8a11.768,11.768,0,0,0-3.372-8.284,11.393,11.393,0,0,0-8.159-3.41Zm0,19.285A7.592,7.592,0,1,1,31.9,24.8a7.531,7.531,0,0,1-7.47,7.591Z" transform="translate(-2 -2)"/>
</svg>
