<svg xmlns="http://www.w3.org/2000/svg" width="40" height="40" viewBox="0 0 40 40">
  <path id="linkedin_1_" data-name="linkedin (1)" d="M0,9.646A4.449,4.449,0,0,1,1.351,6.313,4.829,4.829,0,0,1,4.865,5,4.686,4.686,0,0,1,8.3,6.293,4.666,4.666,0,0,1,9.653,9.768,4.351,4.351,0,0,1,8.34,13a4.839,4.839,0,0,1-3.552,1.333H4.749A4.531,4.531,0,0,1,0,9.646ZM.5,45V18.01H9.073V45Zm13.32,0h8.571V29.929a6.063,6.063,0,0,1,.309-2.182,5.849,5.849,0,0,1,1.641-2.323,4.075,4.075,0,0,1,2.761-.949q4.324,0,4.324,6.1V45H40V29.525q0-5.98-2.7-9.071a9.024,9.024,0,0,0-7.143-3.091,8.68,8.68,0,0,0-7.761,4.485v.081h-.039l.039-.081V18.01H13.822q.077,1.293.077,8.04T13.822,45Z" transform="translate(0 -5)"/>
</svg>
